<!-- Generated by IcoMoon.io -->
<svg version="1.1" xmlns="http://www.w3.org/2000/svg" width="48" height="48" viewBox="0 0 48 48">
<title>airplay</title>
<path fill="#fff" d="M40 4h-32c-3.4 0-6 2.6-6 6v20c0 3.4 2.6 6 6 6h2c1.2 0 2-0.8 2-2s-0.8-2-2-2h-2c-1.2 0-2-0.8-2-2v-20c0-1.2 0.8-2 2-2h32c1.2 0 2 0.8 2 2v20c0 1.2-0.8 2-2 2h-2c-1.2 0-2 0.8-2 2s0.8 2 2 2h2c3.4 0 6-2.6 6-6v-20c0-3.4-2.6-6-6-6z"></path>
<path fill="#fff" d="M25.6 28.8c-0.8-1-2.4-1-3 0l-10 12c-0.4 0.6-0.6 1.4-0.2 2.2 0.2 0.6 0.8 1 1.6 1h20c0.8 0 1.4-0.4 1.8-1.2s0.2-1.6-0.2-2.2l-10-11.8zM18.2 40l5.8-6.8 5.8 6.8h-11.6z"></path>
</svg>
