<!-- Generated by IcoMoon.io -->
<svg version="1.1" xmlns="http://www.w3.org/2000/svg" width="48" height="48" viewBox="0 0 48 48">
<title>alert-circle</title>
<path fill="#fff" d="M24 2c-12.2 0-22 9.8-22 22s9.8 22 22 22 22-9.8 22-22-9.8-22-22-22zM24 42c-10 0-18-8-18-18s8-18 18-18c10 0 18 8 18 18s-8 18-18 18z"></path>
<path fill="#fff" d="M24 14c-1.2 0-2 0.8-2 2v8c0 1.2 0.8 2 2 2s2-0.8 2-2v-8c0-1.2-0.8-2-2-2z"></path>
<path fill="#fff" d="M22.6 30.6c-0.4 0.4-0.6 0.8-0.6 1.4s0.2 1 0.6 1.4c0.4 0.4 0.8 0.6 1.4 0.6s1-0.2 1.4-0.6c0.4-0.4 0.6-1 0.6-1.4s-0.2-1-0.6-1.4c-0.8-0.8-2-0.8-2.8 0z"></path>
</svg>
