<!-- Generated by IcoMoon.io -->
<svg version="1.1" xmlns="http://www.w3.org/2000/svg" width="48" height="48" viewBox="0 0 48 48">
<title>bluetooth</title>
<path fill="#fff" d="M26.8 24l9.6-9.6c0.8-0.8 0.8-2 0-2.8l-11-11c-0.6-0.6-1.4-0.8-2.2-0.4-0.8 0.2-1.2 1-1.2 1.8v17.2l-7.6-7.6c-0.8-0.8-2-0.8-2.8 0s-0.8 2 0 2.8l9.6 9.6-9.6 9.6c-0.8 0.8-0.8 2 0 2.8s2 0.8 2.8 0l7.6-7.6v17.2c0 0.8 0.4 1.6 1.2 1.8 0.2 0.2 0.6 0.2 0.8 0.2 0.6 0 1-0.2 1.4-0.6l11-11c0.8-0.8 0.8-2 0-2.8l-9.6-9.6zM26 6.8l6.2 6.2-6.2 6.2v-12.4zM26 41.2v-12.4l6.2 6.2-6.2 6.2z"></path>
</svg>
