<!-- Generated by IcoMoon.io -->
<svg version="1.1" xmlns="http://www.w3.org/2000/svg" width="48" height="48" viewBox="0 0 48 48">
<title>crosshair</title>
<path fill="#fff" d="M24 2c-12.2 0-22 9.8-22 22s9.8 22 22 22 22-9.8 22-22-9.8-22-22-22zM26 41.8v-5.8c0-1.2-0.8-2-2-2s-2 0.8-2 2v5.8c-8.4-1-15-7.6-15.8-15.8h5.8c1.2 0 2-0.8 2-2s-0.8-2-2-2h-5.8c0.8-8.4 7.4-15 15.8-15.8v5.8c0 1.2 0.8 2 2 2s2-0.8 2-2v-5.8c8.4 1 15 7.6 15.8 15.8h-5.8c-1.2 0-2 0.8-2 2s0.8 2 2 2h5.8c-0.8 8.4-7.4 15-15.8 15.8z"></path>
</svg>
