<!-- Generated by IcoMoon.io -->
<svg version="1.1" xmlns="http://www.w3.org/2000/svg" width="48" height="48" viewBox="0 0 48 48">
<title>github</title>
<path fill="#fff" d="M45 17c0-3-1-5.6-2.8-8 0.6-2.6 0.4-5.4-0.6-7.8-0.2-0.6-0.6-1-1.2-1.2-0.8-0.2-3.4-0.6-8.8 2.8-4.4-1-9-1-13.2 0-5.4-3.4-8-3-8.8-2.8-0.6 0.2-1 0.6-1.2 1.2-1.2 2.6-1.4 5.2-0.6 7.8-1.8 2.4-2.8 5.2-2.8 8 0 10.8 6 14.2 11.6 15.4-0.4 1.4-0.6 2.6-0.6 3.8v0.2c-4.2 0.8-5.6-0.8-7.2-3-1-1.4-2.2-3-4.4-3.4-1-0.2-2.2 0.4-2.4 1.4s0.4 2.2 1.4 2.4c0.6 0.2 1.4 1 2.2 2 1.8 2.4 4.4 5.6 10.4 4.8v3.4c0 1.2 0.8 2 2 2s2-0.8 2-2v-5.8c0 0 0-0.2 0-0.2v-1.8c0-1.4 0.4-2.6 1.4-3.6 0.6-0.6 0.8-1.4 0.4-2-0.2-0.8-0.8-1.2-1.6-1.4-5.8-0.8-11.2-2.6-11.2-12 0-2.4 0.8-4.4 2.4-6.2 0.6-0.6 0.6-1.4 0.4-2-0.6-1.8-0.6-3.4-0.2-5 1 0.2 2.8 0.8 5.2 2.6 0.6 0.4 1.2 0.4 1.8 0.2 4.2-1.2 8.8-1.2 13 0 0.6 0.2 1.2 0 1.6-0.2 2.6-1.8 4.4-2.4 5.2-2.6 0.4 1.6 0.4 3.2-0.2 4.8-0.2 0.8-0.2 1.6 0.4 2 1.6 1.6 2.4 3.8 2.4 6.2 0 9.4-5.4 11.4-11.2 12-0.8 0-1.4 0.6-1.6 1.4s0 1.6 0.4 2c1 1 1.4 2.4 1.4 3.8v7.8c0 1.2 0.8 2 2 2s2-0.8 2-2v-7.6c0.2-1.4 0-2.6-0.6-3.8 4.8-1 11.6-4.2 11.6-15.6z"></path>
</svg>
