<!-- Generated by IcoMoon.io -->
<svg version="1.1" xmlns="http://www.w3.org/2000/svg" width="48" height="48" viewBox="0 0 48 48">
<title>heart</title>
<path fill="#fff" d="M43 7.8v0c-2.4-2.4-5.6-3.8-9-3.8v0c-3.4 0-6.8 1.4-9.2 3.8 0 0 0 0 0 0l-0.8 0.8-0.8-0.8c-2.4-2.4-5.6-3.8-9.2-3.8-3.4 0-6.6 1.4-9 3.8s-4 5.8-4 9.2 1.4 6.8 3.8 9.2l17.6 17.6c0.4 0.4 0.8 0.6 1.4 0.6s1-0.2 1.4-0.6l17.6-17.6c5.4-5 5.4-13.4 0.2-18.4zM40.2 23.4l-16.2 16.2-16.2-16.2c-3.6-3.6-3.6-9.2 0-12.8 1.6-1.8 4-2.6 6.2-2.6 2.4 0 4.6 0.8 6.4 2.6l2.2 2.2c0.8 0.8 2 0.8 2.8 0l2-2.2c0 0 0 0 0 0 1.8-1.6 4-2.6 6.6-2.6 0 0 0 0 0 0 2.4 0 4.6 1 6.4 2.6v0c1.6 1.8 2.6 4 2.6 6.4s-1 4.6-2.8 6.4z"></path>
</svg>
