<!-- Generated by IcoMoon.io -->
<svg version="1.1" xmlns="http://www.w3.org/2000/svg" width="48" height="48" viewBox="0 0 48 48">
<title>layers</title>
<path fill="#fff" d="M3.2 15.8l20 10c0.2 0.2 0.4 0.2 0.8 0.2s0.6 0 0.8-0.2l20-10c0.8-0.4 1.2-1 1.2-1.8s-0.4-1.4-1.2-1.8l-20-10c-0.6-0.2-1.2-0.2-1.8 0l-20 10c-0.6 0.4-1 1-1 1.8s0.4 1.4 1.2 1.8zM24 6.2l15.6 7.8-15.6 7.8-15.6-7.8 15.6-7.8z"></path>
<path fill="#fff" d="M43.2 32.2l-19.2 9.6-19.2-9.6c-1-0.4-2.2 0-2.6 0.8s0 2.2 0.8 2.6l20 10c0.4 0.4 0.6 0.4 1 0.4s0.6 0 0.8-0.2l20-10c1-0.4 1.4-1.6 0.8-2.6-0.4-1-1.6-1.4-2.4-1z"></path>
<path fill="#fff" d="M43.2 22.2l-19.2 9.6-19.2-9.6c-1-0.4-2.2 0-2.6 0.8-0.4 1 0 2.2 0.8 2.6l20 10c0.4 0.4 0.6 0.4 1 0.4s0.6 0 0.8-0.2l20-10c1-0.4 1.4-1.6 0.8-2.6-0.4-1-1.6-1.4-2.4-1z"></path>
</svg>
