<!-- Generated by IcoMoon.io -->
<svg version="1.1" xmlns="http://www.w3.org/2000/svg" width="48" height="48" viewBox="0 0 48 48">
<title>loader</title>
<path fill="#fff" d="M24 2c-1.2 0-2 0.8-2 2v8c0 1.2 0.8 2 2 2s2-0.8 2-2v-8c0-1.2-0.8-2-2-2z"></path>
<path fill="#fff" d="M24 34c-1.2 0-2 0.8-2 2v8c0 1.2 0.8 2 2 2s2-0.8 2-2v-8c0-1.2-0.8-2-2-2z"></path>
<path fill="#fff" d="M11.2 8.4c-0.8-0.8-2-0.8-2.8 0s-0.8 2 0 2.8l5.6 5.6c0.4 0.4 1 0.6 1.4 0.6s1-0.2 1.4-0.6c0.8-0.8 0.8-2 0-2.8l-5.6-5.6z"></path>
<path fill="#fff" d="M33.8 31c-0.8-0.8-2-0.8-2.8 0s-0.8 2 0 2.8l5.6 5.6c0.4 0.4 1 0.6 1.4 0.6s1-0.2 1.4-0.6c0.8-0.8 0.8-2 0-2.8l-5.6-5.6z"></path>
<path fill="#fff" d="M14 24c0-1.2-0.8-2-2-2h-8c-1.2 0-2 0.8-2 2s0.8 2 2 2h8c1.2 0 2-0.8 2-2z"></path>
<path fill="#fff" d="M44 22h-8c-1.2 0-2 0.8-2 2s0.8 2 2 2h8c1.2 0 2-0.8 2-2s-0.8-2-2-2z"></path>
<path fill="#fff" d="M14.2 31l-5.6 5.6c-0.8 0.8-0.8 2 0 2.8 0.4 0.4 1 0.6 1.4 0.6s1-0.2 1.4-0.6l5.6-5.6c0.8-0.8 0.8-2 0-2.8s-2.2-0.8-2.8 0z"></path>
<path fill="#fff" d="M32.4 17.6c0.6 0 1-0.2 1.4-0.6l5.6-5.6c0.8-0.8 0.8-2 0-2.8s-2-0.8-2.8 0l-5.6 5.6c-0.8 0.8-0.8 2 0 2.8 0.4 0.4 1 0.6 1.4 0.6z"></path>
</svg>
