<!-- Generated by IcoMoon.io -->
<svg version="1.1" xmlns="http://www.w3.org/2000/svg" width="48" height="48" viewBox="0 0 48 48">
<title>map-pin</title>
<path fill="#fff" d="M24 0c-11 0-20 9-20 20 0 14.8 18.2 27.2 18.8 27.6 0.4 0.2 0.8 0.4 1.2 0.4s0.8-0.2 1.2-0.4c0.6-0.4 18.8-12.8 18.8-27.6 0-11-9-20-20-20zM24 43.6c-3.8-2.8-16-12.8-16-23.6 0-8.8 7.2-16 16-16s16 7.2 16 16c0 10.8-12.2 20.8-16 23.6z"></path>
<path fill="#fff" d="M24 12c-4.4 0-8 3.6-8 8s3.6 8 8 8c4.4 0 8-3.6 8-8s-3.6-8-8-8zM24 24c-2.2 0-4-1.8-4-4s1.8-4 4-4c2.2 0 4 1.8 4 4s-1.8 4-4 4z"></path>
</svg>
