<!-- Generated by IcoMoon.io -->
<svg version="1.1" xmlns="http://www.w3.org/2000/svg" width="48" height="48" viewBox="0 0 48 48">
<title>map</title>
<path fill="#fff" d="M47 2.2c-0.6-0.4-1.4-0.4-2 0l-13 7.6-15.2-7.6c0 0 0 0 0 0s0 0-0.2 0c-0.2-0.2-0.4-0.2-0.6-0.2 0 0 0 0 0 0s0 0 0 0c-0.2 0-0.4 0-0.8 0.2 0 0 0 0-0.2 0 0 0-0.2 0-0.2 0l-14 8c-0.4 0.4-0.8 1-0.8 1.8v32c0 0.8 0.4 1.4 1 1.8s1.4 0.4 2 0l13-7.6 15 7.6c0 0 0 0 0 0 0.4 0.2 0.6 0.2 1 0.2 0.2 0 0.4 0 0.6-0.2 0 0 0.2 0 0.2 0s0 0 0.2 0l14-8c0.6-0.4 1-1 1-1.8v-32c0-0.8-0.4-1.4-1-1.8zM18 7.2l12 6v27.6l-12-6v-27.6zM4 13.2l10-5.8v27.4l-10 5.8v-27.4zM44 34.8l-10 5.8v-27.4l10-5.8v27.4z"></path>
</svg>
