<!-- Generated by IcoMoon.io -->
<svg version="1.1" xmlns="http://www.w3.org/2000/svg" width="48" height="48" viewBox="0 0 48 48">
<title>maximize</title>
<path fill="#fff" d="M16 4h-6c-3.4 0-6 2.6-6 6v6c0 1.2 0.8 2 2 2s2-0.8 2-2v-6c0-1.2 0.8-2 2-2h6c1.2 0 2-0.8 2-2s-0.8-2-2-2z"></path>
<path fill="#fff" d="M16 40h-6c-1.2 0-2-0.8-2-2v-6c0-1.2-0.8-2-2-2s-2 0.8-2 2v6c0 3.4 2.6 6 6 6h6c1.2 0 2-0.8 2-2s-0.8-2-2-2z"></path>
<path fill="#fff" d="M42 30c-1.2 0-2 0.8-2 2v6c0 1.2-0.8 2-2 2h-6c-1.2 0-2 0.8-2 2s0.8 2 2 2h6c3.4 0 6-2.6 6-6v-6c0-1.2-0.8-2-2-2z"></path>
<path fill="#fff" d="M38 4h-6c-1.2 0-2 0.8-2 2s0.8 2 2 2h6c1.2 0 2 0.8 2 2v6c0 1.2 0.8 2 2 2s2-0.8 2-2v-6c0-3.4-2.6-6-6-6z"></path>
</svg>
