<!-- Generated by IcoMoon.io -->
<svg version="1.1" xmlns="http://www.w3.org/2000/svg" width="48" height="48" viewBox="0 0 48 48">
<title>moon</title>
<path fill="#fff" d="M43 23.8c-0.6-0.4-1.6-0.4-2.2 0.2-4.2 3.2-10 3.2-14.2 0-5.4-4-6.6-11.4-2.6-16.8 0.4-0.6 0.6-1.4 0.2-2.2-0.4-0.6-1.2-1-2-1-9.6 0.8-17.2 8.4-18 18-1 11 7 20.8 18 21.8 0.6 0 1.2 0 1.8 0 4.6 0 9.2-1.6 12.8-4.6 4.2-3.4 6.6-8.2 7.2-13.6 0-0.6-0.4-1.4-1-1.8zM34.4 36.2c-3.2 2.8-7.4 4-11.6 3.6-8.8-0.8-15.2-8.6-14.4-17.4 0.6-6.2 4.8-11.6 10.4-13.6-2.4 6.4-0.2 14 5.6 18.4 4.4 3.2 10 4 15 2.2-1.2 2.6-2.8 5-5 6.8z"></path>
</svg>
