<!-- Generated by IcoMoon.io -->
<svg version="1.1" xmlns="http://www.w3.org/2000/svg" width="48" height="48" viewBox="0 0 48 48">
<title>octagon</title>
<path fill="#fff" d="M45.4 14.4l-11.8-11.8c-0.2-0.4-0.8-0.6-1.4-0.6h-16.4c-0.6 0-1.2 0.2-1.4 0.6l-11.8 11.8c-0.4 0.2-0.6 0.8-0.6 1.4v16.6c0 0.6 0.2 1 0.6 1.4l11.8 11.8c0.2 0.2 0.8 0.4 1.4 0.4h16.6c0.6 0 1-0.2 1.4-0.6l11.8-11.8c0.4-0.4 0.6-0.8 0.6-1.4v-16.4c-0.2-0.6-0.4-1.2-0.8-1.4zM42 31.4l-10.6 10.6h-14.8l-10.6-10.6v-14.8l10.6-10.6h15l10.4 10.6v14.8z"></path>
</svg>
