<!-- Generated by IcoMoon.io -->
<svg version="1.1" xmlns="http://www.w3.org/2000/svg" width="48" height="48" viewBox="0 0 48 48">
<title>power</title>
<path fill="#fff" d="M38.2 11.8c-0.8-0.8-2-0.8-2.8 0s-0.8 2 0 2.8c6.2 6.2 6.2 16.4 0 22.6s-16.4 6.2-22.6 0c-6.2-6.2-6.2-16.4 0-22.6 0.8-0.8 0.8-2 0-2.8s-2-0.8-2.8 0c-8 7.8-8 20.6-0.2 28.4 4 3.8 9 5.8 14.2 5.8s10.2-2 14.2-5.8c7.8-7.8 7.8-20.6 0-28.4z"></path>
<path fill="#fff" d="M24 26c1.2 0 2-0.8 2-2v-20c0-1.2-0.8-2-2-2s-2 0.8-2 2v20c0 1.2 0.8 2 2 2z"></path>
</svg>
