<!-- Generated by IcoMoon.io -->
<svg version="1.1" xmlns="http://www.w3.org/2000/svg" width="48" height="48" viewBox="0 0 48 48">
<title>settings</title>
<path fill="#fff" d="M24 16c-4.4 0-8 3.6-8 8s3.6 8 8 8c4.4 0 8-3.6 8-8s-3.6-8-8-8zM24 28c-2.2 0-4-1.8-4-4s1.8-4 4-4c2.2 0 4 1.8 4 4s-1.8 4-4 4z"></path>
<path fill="#fff" d="M40.6 30.8c0.2-0.4 0.6-0.8 1.4-0.8 3.4 0 6-2.6 6-6s-2.6-6-6-6h-0.4c-0.4 0-0.8-0.2-1-0.6 0-0.2 0-0.2-0.2-0.4-0.2-0.4-0.2-1 0.4-1.6 2.4-2.4 2.4-6.2 0-8.4v0c0 0 0 0 0 0-1.2-1.2-2.6-1.8-4.2-1.8 0 0 0 0 0 0-1.6 0-3.2 0.6-4.4 1.8-0.4 0.4-1 0.4-1.4 0.2-0.4 0-0.8-0.6-0.8-1.2 0-3.4-2.6-6-6-6s-6 2.6-6 6v0.4c0 0.4-0.2 0.8-0.6 1-0.2 0-0.2 0-0.4 0.2-0.4 0.2-1 0-1.6-0.4-2.4-2.4-6.2-2.4-8.4 0-2.4 2.4-2.4 6.2 0.2 8.6 0.4 0.4 0.4 1 0.2 1.6-0.2 0.4-0.8 0.8-1.4 0.8-3.4 0-6 2.6-6 6s2.6 6 6 6h0.4c0.6 0 1 0.4 1.2 0.8s0.2 1-0.4 1.6c-1.2 1.2-1.8 2.6-1.8 4.2s0.6 3 1.8 4.2c0 0 0 0 0 0 2.4 2.4 6.2 2.4 8.6-0.2 0.4-0.4 1-0.4 1.6-0.2s0.8 0.6 0.8 1.4c0 3.4 2.6 6 6 6s6-2.6 6-6v-0.4c0-0.6 0.4-1 0.8-1.2s1-0.2 1.6 0.4c2.4 2.4 6.2 2.4 8.4 0 2.4-2.4 2.4-6.2-0.2-8.6-0.2-0.4-0.4-1-0.2-1.4 0 0 0 0 0 0zM37 29.2c-0.8 2-0.4 4.2 1.2 6 0.4 0.4 0.6 0.8 0.6 1.4s-0.2 1-0.6 1.4c-0.4 0.4-0.8 0.6-1.4 0.6 0 0 0 0 0 0-0.6 0-1-0.2-1.6-0.8-1.6-1.6-3.8-2-5.8-1-2 0.8-3.2 2.8-3.2 4.8v0.4c0 1.2-0.8 2-2 2s-2-0.8-2-2c0 0 0-0.2 0-0.2 0-2.2-1.4-4-3.4-4.8-0.6-0.4-1.4-0.4-2.2-0.4-1.4 0-2.8 0.6-3.8 1.6-0.8 0.8-2 0.8-2.8 0 0 0 0 0 0 0v0c-0.4-0.4-0.6-0.8-0.6-1.4s0.2-1 0.8-1.6c1.6-1.6 2-3.8 1-5.8-0.8-2-2.8-3.2-4.8-3.2h-0.4c-1.2 0-2-0.8-2-2s0.8-2 2-2c0 0 0.2 0 0.2 0 2.2 0 4-1.4 4.8-3.4s0.4-4.2-1.2-6c-0.8-0.8-0.8-2 0-2.8s2-0.8 3 0.2c1.4 1.4 3.6 1.8 5.4 1.2 0.2 0 0.4 0 0.6-0.2 2-0.8 3.2-2.8 3.2-4.8v-0.4c0-1.2 0.8-2 2-2s2 0.8 2 2.2c0 2.2 1.2 4 3.2 4.8s4.2 0.4 6-1.2c0.4-0.4 0.8-0.6 1.4-0.6v0c0.6 0 1 0.2 1.4 0.6 0 0 0 0 0 0 0.8 0.8 0.8 2-0.2 3-1.4 1.4-1.8 3.6-1.2 5.4 0 0.2 0 0.4 0.2 0.6 0.8 2 2.8 3.2 4.8 3.2h0.4c1.2 0 2 0.8 2 2s-0.8 2-2.2 2c-2 0-4 1.2-4.8 3.2z"></path>
</svg>
