<!-- Generated by IcoMoon.io -->
<svg version="1.1" xmlns="http://www.w3.org/2000/svg" width="48" height="48" viewBox="0 0 48 48">
<title>shield-off</title>
<path fill="#fff" d="M18.4 8.2l5.6-2 14 5.2v12.6c0 1.2-0.2 2.4-0.6 3.4s0.2 2.2 1.4 2.4c0.2 0 0.4 0 0.6 0 0.8 0 1.6-0.6 2-1.4 0.4-1.4 0.6-3 0.8-4.6v-13.8c0-0.8-0.6-1.6-1.2-1.8l-16-6c-0.4-0.2-1-0.2-1.4 0l-6.6 2.2c-1 0.4-1.6 1.6-1.2 2.6s1.6 1.6 2.6 1.2z"></path>
<path fill="#fff" d="M47.4 44.6l-44-44c-0.8-0.8-2-0.8-2.8 0s-0.8 2 0 2.8l5.6 5.6c0 0.4-0.2 0.6-0.2 1v14c0 13 16.4 21.4 17.2 21.8 0.2 0.2 0.4 0.2 0.8 0.2s0.6 0 1-0.2c3.8-2 7.2-4.6 10.4-7.6l9.4 9.4c0.4 0.4 1 0.6 1.4 0.6s1-0.2 1.4-0.6c0.6-1 0.6-2.2-0.2-3zM24 41.8c-3.2-1.8-14-8.6-14-17.8v-11.2l22.4 22.4c-2.4 2.6-5.2 4.8-8.4 6.6z"></path>
</svg>
