<!-- Generated by IcoMoon.io -->
<svg version="1.1" xmlns="http://www.w3.org/2000/svg" width="48" height="48" viewBox="0 0 48 48">
<title>skip-back</title>
<path fill="#fff" d="M38.8 6.2c-0.6-0.4-1.6-0.2-2.2 0.2l-20 16c-0.4 0.4-0.6 1-0.6 1.6s0.2 1.2 0.8 1.6l20 16c0.4 0.2 0.8 0.4 1.2 0.4 0.2 0 0.6 0 0.8-0.2 0.6-0.4 1.2-1 1.2-1.8v-32c0-0.8-0.4-1.4-1.2-1.8zM36 35.8l-14.8-11.8 14.8-11.8v23.6z"></path>
<path fill="#fff" d="M10 8c-1.2 0-2 0.8-2 2v28c0 1.2 0.8 2 2 2s2-0.8 2-2v-28c0-1.2-0.8-2-2-2z"></path>
</svg>
