<!-- Generated by IcoMoon.io -->
<svg version="1.1" xmlns="http://www.w3.org/2000/svg" width="48" height="48" viewBox="0 0 48 48">
<title>skip-forward</title>
<path fill="#fff" d="M11.2 6.4c-0.6-0.4-1.4-0.6-2-0.2-0.8 0.4-1.2 1-1.2 1.8v32c0 0.8 0.4 1.4 1.2 1.8 0.2 0.2 0.6 0.2 0.8 0.2 0.4 0 0.8-0.2 1.2-0.4l20-16c0.4-0.4 0.8-1 0.8-1.6s-0.2-1.2-0.8-1.6l-20-16zM12 35.8v-23.6l14.8 11.8-14.8 11.8z"></path>
<path fill="#fff" d="M38 8c-1.2 0-2 0.8-2 2v28c0 1.2 0.8 2 2 2s2-0.8 2-2v-28c0-1.2-0.8-2-2-2z"></path>
</svg>
