<!-- Generated by IcoMoon.io -->
<svg version="1.1" xmlns="http://www.w3.org/2000/svg" width="48" height="48" viewBox="0 0 48 48">
<title>sliders</title>
<path fill="#fff" d="M8 22c1.2 0 2-0.8 2-2v-14c0-1.2-0.8-2-2-2s-2 0.8-2 2v14c0 1.2 0.8 2 2 2z"></path>
<path fill="#fff" d="M24 22c-1.2 0-2 0.8-2 2v18c0 1.2 0.8 2 2 2s2-0.8 2-2v-18c0-1.2-0.8-2-2-2z"></path>
<path fill="#fff" d="M40 26c1.2 0 2-0.8 2-2v-18c0-1.2-0.8-2-2-2s-2 0.8-2 2v18c0 1.2 0.8 2 2 2z"></path>
<path fill="#fff" d="M14 26h-12c-1.2 0-2 0.8-2 2s0.8 2 2 2h4v12c0 1.2 0.8 2 2 2s2-0.8 2-2v-12h4c1.2 0 2-0.8 2-2s-0.8-2-2-2z"></path>
<path fill="#fff" d="M30 14h-4v-8c0-1.2-0.8-2-2-2s-2 0.8-2 2v8h-4c-1.2 0-2 0.8-2 2s0.8 2 2 2h12c1.2 0 2-0.8 2-2s-0.8-2-2-2z"></path>
<path fill="#fff" d="M46 30h-12c-1.2 0-2 0.8-2 2s0.8 2 2 2h4v8c0 1.2 0.8 2 2 2s2-0.8 2-2v-8h4c1.2 0 2-0.8 2-2s-0.8-2-2-2z"></path>
</svg>
