<!-- Generated by IcoMoon.io -->
<svg version="1.1" xmlns="http://www.w3.org/2000/svg" width="48" height="48" viewBox="0 0 48 48">
<title>star</title>
<path fill="#fff" d="M46 18c-0.2-0.8-0.8-1.2-1.6-1.4l-12.8-1.8-5.8-11.6c-0.6-1.4-3-1.4-3.6 0l-5.8 11.4-12.6 2c-0.8 0-1.4 0.6-1.8 1.4-0.2 0.8 0 1.6 0.6 2l9.2 9-2.2 12.8c-0.2 0.8 0.2 1.6 0.8 2s1.4 0.6 2.2 0.2l11.4-6 11.4 6c0.4 0 0.6 0 1 0s0.8-0.2 1.2-0.4c0.6-0.4 1-1.2 0.8-2l-2.2-12.8 9.2-9c0.6-0.4 0.8-1.2 0.6-1.8zM32.6 26.8c-0.4 0.6-0.6 1.2-0.6 1.8l1.6 9.8-8.8-4.6c-0.6-0.4-1.2-0.4-1.8 0l-8.8 4.6 1.8-9.8c0-0.6-0.2-1.2-0.6-1.8l-7.2-6.8 9.8-1.4c0.6 0 1.2-0.6 1.6-1l4.4-9 4.4 8.8c0.2 0.6 0.8 1 1.6 1l9.8 1.4-7.2 7z"></path>
</svg>
