<!-- Generated by IcoMoon.io -->
<svg version="1.1" xmlns="http://www.w3.org/2000/svg" width="48" height="48" viewBox="0 0 48 48">
<title>sun</title>
<path fill="#fff" d="M24 12c-6.6 0-12 5.4-12 12s5.4 12 12 12 12-5.4 12-12-5.4-12-12-12zM24 32c-4.4 0-8-3.6-8-8s3.6-8 8-8c4.4 0 8 3.6 8 8s-3.6 8-8 8z"></path>
<path fill="#fff" d="M24 8c1.2 0 2-0.8 2-2v-4c0-1.2-0.8-2-2-2s-2 0.8-2 2v4c0 1.2 0.8 2 2 2z"></path>
<path fill="#fff" d="M24 40c-1.2 0-2 0.8-2 2v4c0 1.2 0.8 2 2 2s2-0.8 2-2v-4c0-1.2-0.8-2-2-2z"></path>
<path fill="#fff" d="M9.8 12.6c0.4 0.4 1 0.6 1.4 0.6s1-0.2 1.4-0.6c0.8-0.8 0.8-2 0-2.8l-2.8-2.8c-0.8-0.8-2-0.8-2.8 0s-0.8 2 0 2.8l2.8 2.8z"></path>
<path fill="#fff" d="M38.2 35.4c-0.8-0.8-2-0.8-2.8 0s-0.8 2 0 2.8l2.8 2.8c0.4 0.4 1 0.6 1.4 0.6s1-0.2 1.4-0.6c0.8-0.8 0.8-2 0-2.8l-2.8-2.8z"></path>
<path fill="#fff" d="M8 24c0-1.2-0.8-2-2-2h-4c-1.2 0-2 0.8-2 2s0.8 2 2 2h4c1.2 0 2-0.8 2-2z"></path>
<path fill="#fff" d="M46 22h-4c-1.2 0-2 0.8-2 2s0.8 2 2 2h4c1.2 0 2-0.8 2-2s-0.8-2-2-2z"></path>
<path fill="#fff" d="M9.8 35.4l-2.8 2.8c-0.8 0.8-0.8 2 0 2.8 0.4 0.4 1 0.6 1.4 0.6s1-0.2 1.4-0.6l2.8-2.8c0.8-0.8 0.8-2 0-2.8s-2-0.8-2.8 0z"></path>
<path fill="#fff" d="M36.8 13.2c0.6 0 1-0.2 1.4-0.6l2.8-2.8c0.8-0.8 0.8-2 0-2.8s-2-0.8-2.8 0l-2.8 2.8c-0.8 0.8-0.8 2 0 2.8 0.2 0.4 0.8 0.6 1.4 0.6z"></path>
</svg>
