<!-- Generated by IcoMoon.io -->
<svg version="1.1" xmlns="http://www.w3.org/2000/svg" width="48" height="48" viewBox="0 0 48 48">
<title>volume-1</title>
<path fill="#fff" d="M22.8 8.2c-0.6-0.4-1.6-0.2-2.2 0.2l-9.4 7.6h-7.2c-1.2 0-2 0.8-2 2v12c0 1.2 0.8 2 2 2h7.2l9.4 7.6c0.4 0.2 0.8 0.4 1.2 0.4 0.2 0 0.6 0 0.8-0.2 0.6-0.4 1.2-1 1.2-1.8v-28c0.2-0.8-0.2-1.4-1-1.8zM20 33.8l-6.8-5.4c-0.4-0.2-0.8-0.4-1.2-0.4h-6v-8h6c0.4 0 0.8-0.2 1.2-0.4l6.8-5.4v19.6z"></path>
<path fill="#fff" d="M32.4 15.6c-0.8-0.8-2-0.8-2.8 0s-0.8 2 0 2.8c3.2 3.2 3.2 8.2 0 11.4-0.8 0.8-0.8 2 0 2.8 0.4 0.4 1 0.6 1.4 0.6s1-0.2 1.4-0.6c4.8-4.8 4.8-12.4 0-17z"></path>
</svg>
