<!-- Generated by IcoMoon.io -->
<svg version="1.1" xmlns="http://www.w3.org/2000/svg" width="48" height="48" viewBox="0 0 48 48">
<title>wifi</title>
<path fill="#fff" d="M8.8 23.6c-0.8 0.8-1 2-0.2 2.8 0.4 0.4 1 0.8 1.6 0.8 0.4 0 1-0.2 1.2-0.4 7.4-6.2 18.2-6.2 25.6 0 0.8 0.8 2.2 0.6 2.8-0.2 0.8-0.8 0.6-2.2-0.2-2.8-9-7.6-22-7.6-30.8-0.2z"></path>
<path fill="#fff" d="M46.4 16.4c-12.8-11.2-32.2-11.2-45 0-0.8 0.8-1 2-0.2 2.8 0.6 0.6 1 0.8 1.6 0.8 0.4 0 1-0.2 1.4-0.4 11.4-10 28.4-10 39.6 0 0.8 0.8 2 0.6 2.8-0.2 0.8-1 0.8-2.2-0.2-3z"></path>
<path fill="#fff" d="M16 30.6c-1 0.6-1.2 1.8-0.4 2.8 0.6 0.8 1.8 1.2 2.8 0.4 3.4-2.4 8.2-2.4 11.6 0 0.4 0.2 0.8 0.4 1.2 0.4 0.6 0 1.2-0.2 1.6-0.8 0.6-1 0.4-2.2-0.4-2.8-5.2-3.4-11.6-3.4-16.4 0z"></path>
<path fill="#fff" d="M22.6 38.6c-0.4 0.4-0.6 0.8-0.6 1.4s0.2 1 0.6 1.4c0.4 0.4 0.8 0.6 1.4 0.6s1-0.2 1.4-0.6c0.4-0.4 0.6-1 0.6-1.4s-0.2-1-0.6-1.4c-0.8-0.8-2-0.8-2.8 0z"></path>
</svg>
