<!-- Generated by IcoMoon.io -->
<svg version="1.1" xmlns="http://www.w3.org/2000/svg" width="48" height="48" viewBox="0 0 48 48">
<title>zoom-in</title>
<path fill="#fff" d="M43.4 40.6l-7.4-7.4c2.4-3 4-7 4-11.2 0-10-8-18-18-18s-18 8-18 18c0 10 8 18 18 18 4.2 0 8.2-1.4 11.2-4l7.4 7.4c0.4 0.4 1 0.6 1.4 0.6s1-0.2 1.4-0.6c0.8-0.8 0.8-2 0-2.8zM8 22c0-7.8 6.2-14 14-14s14 6.2 14 14c0 3.8-1.6 7.4-4 9.8 0 0 0 0 0 0s0 0 0 0c-2.6 2.6-6 4-9.8 4-8 0.2-14.2-6-14.2-13.8z"></path>
<path fill="#fff" d="M28 20h-4v-4c0-1.2-0.8-2-2-2s-2 0.8-2 2v4h-4c-1.2 0-2 0.8-2 2s0.8 2 2 2h4v4c0 1.2 0.8 2 2 2s2-0.8 2-2v-4h4c1.2 0 2-0.8 2-2s-0.8-2-2-2z"></path>
</svg>
